# xmcd
#
# Track frame offsets: 
#        150
#        31200
#        52575
#        74475
#        108612
#        138992
#        166780
#        192390
#        222192
#
# Disc length: 3321 seconds
#
# Revision: 10
# Processed by: cddbd v1.5.2PL0 Copyright (c) Steve Scherf et al.
# Submitted via: ExactAudioCopyFreeDBPlugin 1.0
#
DISCID=7a0cf709
DTITLE=山崎まさよし - ONE KNIGHT STANDS disc:02
DYEAR=2000
DGENRE=Pop
TTITLE0=アレルギーの特効薬〜WHAT'D I SAY
TTITLE1=月明かりに照らされて
TTITLE2=Ticket to the paradise
TTITLE3=パンを焼く
TTITLE4=ヤサ男の夢〜昼休み
TTITLE5=振り向かない
TTITLE6=セロリ
TTITLE7=審判の日
TTITLE8=灯りを消す前に
EXTD=YEAR: 2000
EXTT0=
EXTT1=
EXTT2=
EXTT3=
EXTT4=
EXTT5=
EXTT6=
EXTT7=
EXTT8=
PLAYORDER=
